<svg id="Layer_1" data-name="Layer 1" xmlns="http://www.w3.org/2000/svg" viewBox="0 0 686 218"><defs><style>.cls-1{fill:#00853f;}.cls-2{fill:#fff;}</style></defs><rect class="cls-1" width="686" height="168"/><path class="cls-2" d="M617.11,80.59h23.27l5.54-26.78H622.64l6.15-29.66H594.66l-17.74,85.77a51.2,51.2,0,0,0-1.31,12.2,17.75,17.75,0,0,0,4.74,11.32,23.21,23.21,0,0,0,8.8,6.41,30.58,30.58,0,0,0,11.15,1.75h26.54l5.33-25.7H618.58c-3.34,0-5.87-.6-7.11-1.69-.43-.37-1.15-1-.66-3.27Z" transform="translate(-1 1)"/><polygon class="cls-2" points="48.24 24.42 42.37 52.81 79.31 52.81 85.19 24.42 48.24 24.42"/><path class="cls-2" d="M161.66,99.46l22.79,41.41h42.6l-26.32-46.3a77.42,77.42,0,0,0,12.05-8.47c4.76-4.1,11-13.7,12.7-22.06,2.33-11.2.28-20.86-6.08-28.74-7.1-8.76-20.75-11.88-30.27-11.88h-87L96.27,51.81h41.87l31.13-.08c6,0,10.41,1,13.15,3,1.47,1.08,2.71,2.56,2,6.13-.66,3.18-3.12,5.8-7.5,8A28.49,28.49,0,0,1,163.82,72h-34l2.69-11.52H94.41l-17,80.37h38L124,99.46Z" transform="translate(-1 1)"/><polygon class="cls-2" points="40.85 61.49 23.88 141.87 61.05 141.87 77.81 61.49 40.85 61.49"/><path class="cls-2" d="M326.2,64.27c-8.88-7.67-21.85-11.57-38.56-11.57-14.82,0-28.33,3.49-40.19,10.34-13.72,7.84-22.1,18.72-24.93,32.35-3.47,16.72.28,29.55,11.09,38.15,8.79,6.92,21.84,10.46,38.8,10.46,15.54,0,29-3.41,40-10.09,12.24-7.48,19.89-18.08,22.66-31.59l.95-4.5c2.93-14.1-.39-25.38-9.83-33.55m-29.06,31.3c-1.48,7.13-4.42,12.73-8.69,16.64s-9.62,5.66-16.59,5.66c-5.78,0-9.95-1.69-12.74-5.15s-3.52-8.15-2.25-14.3a22.3,22.3,0,0,1,8.51-13.52,24.93,24.93,0,0,1,15.9-5.4c6.22,0,10.61,1.52,13.38,4.66s3.47,6.68,2.48,11.41" transform="translate(-1 1)"/><path class="cls-2" d="M563.51,64.27C554.64,56.6,541.66,52.7,525,52.7c-14.84,0-28.34,3.49-40.21,10.34-13.71,7.84-22.1,18.72-24.92,32.35-3.48,16.72.27,29.55,11.08,38.15,8.79,6.92,21.85,10.46,38.81,10.46,15.55,0,29-3.41,40-10.09,12.27-7.48,19.89-18.08,22.68-31.59l.94-4.51c2.92-14.09-.38-25.37-9.83-33.54m-26.74,31.3c-1.51,7.24-4.35,12.67-8.69,16.64-4.21,3.8-9.62,5.66-16.59,5.66-5.78,0-9.95-1.69-12.74-5.15s-3.53-8.15-2.25-14.3A22.26,22.26,0,0,1,505,84.9a24.89,24.89,0,0,1,15.88-5.4c6.23,0,10.61,1.52,13.38,4.67s3.48,6.67,2.5,11.4" transform="translate(-1 1)"/><path class="cls-2" d="M444,64.22c-9.19-7.63-22.15-11.52-38.49-11.52a88.59,88.59,0,0,0-18.48,2l7.4-31.29H358.14L344.7,83.82c-.43,2.06-4.26,20.34-4.16,27.64a28.61,28.61,0,0,0,10.89,22.08c8.79,6.92,21.84,10.46,38.8,10.46,15.54,0,29-3.41,40-10.09,12.26-7.46,19.89-18.08,22.67-31.59v.18c.25-1,6-25.9-8.93-38.28M417.28,95.57c-1.47,7.15-4.42,12.73-8.71,16.64S399,117.87,392,117.87c-5.8,0-9.95-1.69-12.73-5.15-.64-.77-.69-1.93-.66-4.63.06-4.34,2.62-15.47,3.81-18.33,1.05-2.44,1.62-3.7,3.11-4.86a24.79,24.79,0,0,1,15.85-5.4c6.25,0,10.64,1.52,13.41,4.66s3.45,6.68,2.49,11.41" transform="translate(-1 1)"/><path class="cls-2" d="M663.33,33.68a9.73,9.73,0,1,1-16.6-6.86,9.73,9.73,0,0,1,16.6,6.86m-1.35,0a8.37,8.37,0,1,0-14.29,5.92A8.39,8.39,0,0,0,662,33.68m-3.76,5.7h-1.84L654.2,34.5h-3.15v4.88h-1.69V28h4.81a3.91,3.91,0,0,1,2.91,1,3,3,0,0,1,.43,3.93,2.89,2.89,0,0,1-1.64,1.18Zm-7.17-6.24H654a2.27,2.27,0,0,0,1.71-.56,2,2,0,0,0,.56-1.42,1.53,1.53,0,0,0-.59-1.31,2.43,2.43,0,0,0-1.49-.46h-3.12Z" transform="translate(-1 1)"/><text x="-1" y="1"/></svg>