<svg id="Layer_1" data-name="Layer 1" xmlns="http://www.w3.org/2000/svg" viewBox="0 0 979.88 1019.83"><defs><style>.cls-1{fill:#ccc;}.cls-2{fill:#006837;}</style></defs><polygon class="cls-1" points="489.66 0 605.25 355.76 979.32 355.76 676.7 575.63 792.29 931.39 489.66 711.52 187.03 931.39 302.63 575.63 0 355.76 374.07 355.76 489.66 0"/><polygon class="cls-1" points="801.64 93.16 680.64 447.11 979.88 671.57 605.86 665.87 484.86 1019.83 374.7 662.35 0.67 656.64 306.62 441.41 196.46 83.93 495.7 308.39 801.64 93.16"/><path class="cls-2" d="M275,575c-4.62,0-6.64-2-6.64-6.64V546.78c0-4.61,2-6.64,6.64-6.64h49.61c3.14,0,4.8-2.4,4.8-5.35,0-4.24-1.66-5.9-4.8-6.27L297,524.65c-17.34-2.58-28.59-10-28.59-30.62V474.66c0-21,14.2-32.46,38.18-32.46h51.64c4.61,0,6.64,2,6.64,6.64v22c0,4.61-2,6.64-6.64,6.64h-43c-3.13,0-5,2.21-5,5.53s1.85,5.54,5,5.91l27.49,3.68c17.33,2.59,28.77,10,28.77,30.62v19.37c0,21-14.39,32.46-38.18,32.46Z" transform="translate(-21 -4)"/><path class="cls-2" d="M422.56,575H395.45c-4.61,0-6.64-2-6.64-6.64V519.67c0-7.38,2.21-16.6,7.19-29.51l16.05-41.87c1.48-4.24,4.43-6.09,9.41-6.09h49.61c4.8,0,7.75,1.85,9.23,6.09l16,41.87c5,12.91,7.2,22.13,7.2,29.51v48.69c0,4.61-2,6.64-6.64,6.64H469c-5,0-7.19-2-7.19-6.64V542.54H429.2v25.82C429.2,573,427.18,575,422.56,575Zm8.49-66h29l-8.67-28c-.92-2.21-2-3.13-3.51-3.13h-4.61c-1.47,0-2.58.92-3.5,3.13Z" transform="translate(-21 -4)"/><path class="cls-2" d="M532.87,575c-4.61,0-6.64-2-6.64-6.64V448.84c0-4.61,2-6.64,6.64-6.64h28.59c4.61,0,6.63,2,6.63,6.64v91.3h25.27V510.26c0-4.61,2-6.64,6.64-6.64h26.75c4.61,0,6.64,2,6.64,6.64v58.1c0,4.61-2,6.64-6.64,6.64Z" transform="translate(-21 -4)"/><path class="cls-2" d="M661.06,575c-4.61,0-6.64-2-6.64-6.64V448.84c0-4.61,2-6.64,6.64-6.64h85.58c4.61,0,6.64,2,6.64,6.64v21.58c0,4.61-2,6.64-6.64,6.64H695.73v14.2h36c4.61,0,6.64,2,6.64,6.64v19.74c0,4.61-2,6.64-6.64,6.64h-36v15.86h50.91c4.61,0,6.64,2,6.64,6.64v21.58c0,4.61-2,6.64-6.64,6.64Z" transform="translate(-21 -4)"/></svg>